<svg xmlns="http://www.w3.org/2000/svg" viewBox="0 0 1200 760" role="img" aria-labelledby="title desc">
  <title id="title">ABS workforce management dashboard illustration</title>
  <desc id="desc">A premium corporate workspace scene with people, analytics, staffing cards and process flows.</desc>
  <defs>
    <linearGradient id="bg" x1="0" y1="0" x2="1" y2="1">
      <stop offset="0" stop-color="#f0ecff"/>
      <stop offset=".48" stop-color="#ffffff"/>
      <stop offset="1" stop-color="#ebe6ff"/>
    </linearGradient>
    <linearGradient id="blue" x1="0" y1="0" x2="1" y2="1">
      <stop offset="0" stop-color="#4b3f91"/>
      <stop offset="1" stop-color="#8f7df0"/>
    </linearGradient>
    <filter id="shadow" x="-20%" y="-20%" width="140%" height="140%">
      <feDropShadow dx="0" dy="24" stdDeviation="22" flood-color="#0b2340" flood-opacity=".16"/>
    </filter>
  </defs>
  <rect width="1200" height="760" rx="44" fill="url(#bg)"/>
  <circle cx="1030" cy="150" r="155" fill="#ebe6ff"/>
  <circle cx="165" cy="610" r="190" fill="#f7f5ff"/>
  <g filter="url(#shadow)">
    <rect x="120" y="86" width="760" height="530" rx="30" fill="#fff"/>
    <rect x="154" y="126" width="692" height="70" rx="20" fill="#f4f8fb"/>
    <circle cx="193" cy="161" r="16" fill="#8f7df0"/>
    <circle cx="239" cy="161" r="16" fill="#c6bbff"/>
    <circle cx="285" cy="161" r="16" fill="#4b3f91"/>
    <rect x="165" y="232" width="270" height="142" rx="24" fill="#4b3f91"/>
    <rect x="469" y="232" width="330" height="142" rx="24" fill="#f7fbff"/>
    <rect x="168" y="414" width="188" height="126" rx="24" fill="#f7fbff"/>
    <rect x="392" y="414" width="188" height="126" rx="24" fill="#f7fbff"/>
    <rect x="616" y="414" width="188" height="126" rx="24" fill="#f7fbff"/>
    <path d="M200 329c44-70 101-22 137-76 26-38 49-43 75-18" fill="none" stroke="#fff" stroke-width="11" stroke-linecap="round"/>
    <text x="196" y="282" fill="#fff" font-family="Inter,Arial" font-size="24" font-weight="700">Workforce readiness</text>
    <text x="196" y="322" fill="#eeeaff" font-family="Inter,Arial" font-size="18">98% deployment SLA</text>
    <rect x="514" y="270" width="235" height="16" rx="8" fill="#ddd6ff"/>
    <rect x="514" y="310" width="175" height="16" rx="8" fill="#e4eef5"/>
    <rect x="514" y="350" width="210" height="16" rx="8" fill="#e4eef5"/>
    <rect x="204" y="452" width="92" height="16" rx="8" fill="#ddd6ff"/>
    <rect x="428" y="452" width="92" height="16" rx="8" fill="#ddd6ff"/>
    <rect x="652" y="452" width="92" height="16" rx="8" fill="#ddd6ff"/>
    <path d="M218 511h104M442 511h104M666 511h104" stroke="#4b3f91" stroke-width="12" stroke-linecap="round"/>
  </g>
  <g filter="url(#shadow)">
    <rect x="792" y="250" width="278" height="334" rx="34" fill="#111827"/>
    <rect x="827" y="295" width="208" height="18" rx="9" fill="#c6bbff"/>
    <rect x="827" y="337" width="164" height="14" rx="7" fill="#d7e5ef"/>
    <rect x="827" y="380" width="190" height="72" rx="18" fill="url(#blue)"/>
    <rect x="827" y="480" width="82" height="62" rx="16" fill="#253145"/>
    <rect x="932" y="480" width="82" height="62" rx="16" fill="#253145"/>
    <path d="M859 430h126" stroke="#fff" stroke-width="11" stroke-linecap="round"/>
    <path d="M851 517h34M956 517h34" stroke="#c6bbff" stroke-width="9" stroke-linecap="round"/>
  </g>
  <g>
    <circle cx="926" cy="160" r="52" fill="#4b3f91"/>
    <circle cx="1025" cy="205" r="46" fill="#8f7df0"/>
    <circle cx="856" cy="214" r="38" fill="#c6bbff"/>
    <path d="M900 160h52M1004 205h42M837 214h38" stroke="#fff" stroke-width="12" stroke-linecap="round"/>
  </g>
</svg>
